<svg height='100px' width='100px'  fill="#f9f7f4" xmlns="http://www.w3.org/2000/svg" viewBox="0 0 64 64" x="0px" y="0px"><g data-name="Back Photo Camera"><path d="M50,33a6,6,0,1,0,6,6A6.006,6.006,0,0,0,50,33Zm0,10a4,4,0,1,1,4-4A4,4,0,0,1,50,43Z"></path><path d="M47,26a3,3,0,1,0,3-3A3,3,0,0,0,47,26Zm4,0a1,1,0,1,1-1-1A1,1,0,0,1,51,26Z"></path><rect x="46" y="17" width="8" height="2"></rect><path d="M41,21H7a1,1,0,0,0-1,1V46a1,1,0,0,0,1,1H41a1,1,0,0,0,1-1V22A1,1,0,0,0,41,21ZM40,45H8V23H40Z"></path><path d="M59,13H55V11a2,2,0,0,0-2-2H47a2,2,0,0,0-2,2v2H36.721L34.949,7.684A1,1,0,0,0,34,7H20a1,1,0,0,0-.949.684L17.279,13H5a3,3,0,0,0-3,3V48a3,3,0,0,0,3,3H59a3,3,0,0,0,3-3V16A3,3,0,0,0,59,13ZM47,11h6v2H47ZM60,48a1,1,0,0,1-1,1H5a1,1,0,0,1-1-1V16a1,1,0,0,1,1-1H18a1,1,0,0,0,.949-.684L20.721,9H33.279l1.772,5.316A1,1,0,0,0,36,15H59a1,1,0,0,1,1,1Z"></path><path d="M22,19H32a1,1,0,0,0,1-1V12a1,1,0,0,0-1-1H22a1,1,0,0,0-1,1v6A1,1,0,0,0,22,19Zm1-6h8v4H23Z"></path></g></svg>