<svg height='100px' width='100px'  fill="#2f2d2b" xmlns="http://www.w3.org/2000/svg" xmlns:xlink="http://www.w3.org/1999/xlink" viewBox="0 0 164 164" version="1.1" x="0px" y="0px"><title>mirrorless</title><desc>Created with Sketch.</desc><g stroke="none" stroke-width="1" fill="none" fill-rule="evenodd"><g stroke="#2f2d2b"><rect stroke-width="3.12" x="22" y="56.7613169" width="120.702128" height="63.4545039" rx="5.2"></rect><path d="M105.818844,77.5020576 L136.201969,77.5020576 C139.793134,77.5020576 142.702128,74.5894042 142.702128,70.9964641 L142.702128,61.9683101 C142.702128,59.0801711 140.371423,56.7613169 137.496353,56.7613169 L27.2057743,56.7613169 C24.3301051,56.7613169 22,59.0925671 22,61.9683101 L22,70.9964641 C22,74.5963076 24.91022,77.5020576 28.5001582,77.5020576 L67.9683896,77.5020576 C65.1774957,81.3461142 63.5319149,86.07371 63.5319149,91.1851852 C63.5319149,104.071829 73.9913052,114.518519 86.893617,114.518519 C99.7959288,114.518519 110.255319,104.071829 110.255319,91.1851852 C110.255319,86.07371 108.609738,81.3461142 105.818844,77.5020576 Z" stroke-width="3.12"></path><ellipse stroke-width="3.12" cx="86.893617" cy="91.1851852" rx="23.3617021" ry="23.3333333"></ellipse><ellipse stroke-width="2.6" cx="86.893617" cy="91.1851852" rx="15.5744681" ry="15.5555556"></ellipse><ellipse stroke-width="1.04" cx="86.893617" cy="91.1851852" rx="10.3829787" ry="10.3703704"></ellipse><path d="M22,100.831884 L22,106.688113 C22,110.26645 24.905435,113.157408 28.4894706,113.157408 L79.0124173,113.157408 L79.0124173,113.157408 C81.4746057,114.03853 84.1279895,114.518519 86.893617,114.518519 C89.6592445,114.518519 92.3126283,114.03853 94.7748168,113.157408 L136.212657,113.157408 C139.807962,113.157408 142.702128,110.261006 142.702128,106.688113 L142.702128,100.831884" stroke-width="3.12"></path><rect stroke-width="1.95" x="124.531915" y="62.6666667" width="12.9787234" height="10.7462962" rx="1.3"></rect><rect stroke-width="1.95" x="106.361702" y="62.6666667" width="12.9787234" height="9.45216049" rx="1.3"></rect><path d="M106.290348,67.7126022 L111.688466,62.6944176" stroke-width="0.65" stroke-linecap="square"></path><path d="M106.318358,71.5722255 L115.546987,62.9754253" stroke-width="0.65" stroke-linecap="square"></path><path d="M110.351363,71.657342 L119.073164,63.6133728" stroke-width="0.65" stroke-linecap="square"></path><path d="M114.388565,71.716931 L119.151586,67.3956543" stroke-width="0.65" stroke-linecap="square"></path><polyline stroke-width="2.08" stroke-linecap="round" points="23.8181401 68.8920896 28.5008354 68.8920896 59.19635 68.8920896"></polyline><polyline stroke-width="1.3" stroke-linecap="round" points="23.8181401 65.0032007 27.1267709 65.0032007 48.8151617 65.0032007"></polyline><path d="M116.770075,103.89209 L135.018286,103.89209 C139.324274,103.89209 142.814968,100.394882 142.814968,96.0905906 L142.814968,84.3305698" stroke-width="2.08" stroke-linecap="round"></path><path d="M29.2837491,52.6001655 C29.2837491,52.0257687 29.7421617,51.560128 30.3261155,51.560128 L38.9098936,51.560128 C39.4855767,51.560128 39.9522601,52.0216988 39.9522601,52.6001655 L39.9522601,56.7613169 L29.2837491,56.7613169 L29.2837491,52.6001655 Z" stroke-width="2.6"></path><path d="M46.1560895,52.6001655 C46.1560895,52.0257687 46.6242772,51.560128 47.2037481,51.560128 L59.6759291,51.560128 C60.254535,51.560128 60.7235877,52.0216988 60.7235877,52.6001655 L60.7235877,56.7613169 L46.1560895,56.7613169 L46.1560895,52.6001655 Z" stroke-width="2.6"></path></g></g></svg>