<?xml version="1.0" encoding="utf-8"?>
<!-- Generator: Adobe Illustrator 24.3.0, SVG Export Plug-In . SVG Version: 6.00 Build 0)  -->
<svg version="1.1" id="Layer_1" xmlns="http://www.w3.org/2000/svg" xmlns:xlink="http://www.w3.org/1999/xlink" x="0px" y="0px"
	 viewBox="0 0 100 100" style="enable-background:new 0 0 100 100;" xml:space="preserve">
<style type="text/css">
	.st0{fill:none;stroke:#2F2D2B;stroke-width:2.4851;stroke-miterlimit:2.439;}
	.st1{fill:none;stroke:#2F2D2B;stroke-width:2.0709;stroke-miterlimit:2.439;}
	.st2{fill:none;stroke:#2F2D2B;stroke-width:0.8284;stroke-miterlimit:2.439;}
	.st3{fill:none;stroke:#2F2D2B;stroke-width:1.5532;stroke-miterlimit:2.439;}
	.st4{fill:none;stroke:#2F2D2B;stroke-width:0.5177;stroke-linecap:square;stroke-miterlimit:2.439;}
	.st5{fill:none;stroke:#2F2D2B;stroke-width:1.6568;stroke-linecap:round;stroke-miterlimit:2.439;}
	.st6{fill:none;stroke:#2F2D2B;stroke-width:1.0355;stroke-linecap:round;stroke-miterlimit:2.439;}
</style>
<desc>Created with Sketch.</desc>
<g>
	<g>
		<path class="st0" d="M6,31.5h87.9c2.3,0,4.1,1.9,4.1,4.1v42.3c0,2.3-1.9,4.1-4.1,4.1H6c-2.3,0-4.1-1.9-4.1-4.1V35.7
			C1.9,33.5,3.7,31.5,6,31.5z"/>
		<path class="st0" d="M68.6,48h24.2c2.9,0,5.2-2.3,5.2-5.2v-7.2c0-2.3-1.9-4.1-4.1-4.1H6c-2.3,0-4.1,1.9-4.1,4.1v7.2
			c0,2.9,2.3,5.2,5.2,5.2h31.4c-2.2,3.1-3.5,6.8-3.5,10.9c0,10.3,8.3,18.6,18.6,18.6s18.6-8.3,18.6-18.6
			C72.2,54.8,70.9,51.2,68.6,48z"/>
		<ellipse class="st0" cx="53.6" cy="59" rx="18.6" ry="18.6"/>
		<ellipse class="st1" cx="53.6" cy="59" rx="12.4" ry="12.4"/>
		<ellipse class="st2" cx="53.6" cy="59" rx="8.3" ry="8.3"/>
		<path class="st0" d="M1.9,66.7v4.7c0,2.9,2.3,5.2,5.2,5.2h40.2l0,0c2,0.7,4.1,1.1,6.3,1.1s4.3-0.4,6.3-1.1h33
			c2.9,0,5.2-2.3,5.2-5.2v-4.7"/>
		<path class="st3" d="M84.6,36.2h8.3c0.6,0,1,0.5,1,1v6.5c0,0.6-0.5,1-1,1h-8.3c-0.6,0-1-0.5-1-1v-6.5C83.6,36.8,84,36.2,84.6,36.2
			z"/>
		<path class="st3" d="M70.1,36.2h8.3c0.6,0,1,0.5,1,1v5.5c0,0.6-0.5,1-1,1h-8.3c-0.6,0-1-0.5-1-1v-5.5
			C69.1,36.8,69.5,36.2,70.1,36.2z"/>
		<path class="st4" d="M69,40.2l4.3-4"/>
		<path class="st4" d="M69,43.3l7.4-6.8"/>
		<path class="st4" d="M72.3,43.5l6.9-6.4"/>
		<path class="st4" d="M75.5,43.5l3.8-3.4"/>
		<polyline class="st5" points="3.3,41.2 7.1,41.2 31.5,41.2 		"/>
		<polyline class="st6" points="3.3,38.2 6,38.2 23.2,38.2 		"/>
		<path class="st5" d="M77.4,69.1h14.5c3.4,0,6.2-2.8,6.2-6.2v-9.4"/>
		<path class="st1" d="M7.7,28.2c0-0.5,0.4-0.8,0.8-0.8h6.8c0.5,0,0.8,0.4,0.8,0.8v3.3H7.7V28.2z"/>
		<path class="st1" d="M21.1,28.2c0-0.5,0.4-0.8,0.8-0.8h9.9c0.5,0,0.8,0.4,0.8,0.8v3.3H21.1V28.2z"/>
	</g>
</g>
</svg>
