<?xml version="1.0" encoding="utf-8"?>
<!-- Generator: Adobe Illustrator 24.3.0, SVG Export Plug-In . SVG Version: 6.00 Build 0)  -->
<svg version="1.1" id="Layer_1" xmlns="http://www.w3.org/2000/svg" xmlns:xlink="http://www.w3.org/1999/xlink" x="0px" y="0px"
	 viewBox="0 0 100 100" style="enable-background:new 0 0 100 100;" xml:space="preserve">
<style type="text/css">
	.st0{fill:#2F2D2B;}
</style>
<g>
	<path class="st0" d="M63.5,75.9H48.4V78c1.2,0,2.2,1,2.2,2.2v2.2c0,1.2-1,2.2-2.2,2.2H9.6c-1.2,0-2.2-1-2.2-2.2v-2.2
		c0-1.2,1-2.2,2.2-2.2V29.5c-1.2,0-2.2-1-2.2-2.2v-2.2c0-1.2,1-2.2,2.2-2.2h10.8v-5.4c0-1.2,1-2.2,2.2-2.2h12.9c1.2,0,2.2,1,2.2,2.2
		v5.4h10.8c1.2,0,2.2,1,2.2,2.2v2.2c0,1.2-1,2.2-2.2,2.2v2.2h37.7c3.6,0,6.5,2.9,6.5,6.5v18.3c0,3.6-2.9,6.5-6.5,6.5h-9.7
		c-3.6,0-6.5,2.9-6.5,6.5C69.9,73,67,75.9,63.5,75.9z M9.6,27.4h38.8v-2.2H9.6V27.4z M9.6,82.3h38.8v-2.2H9.6V82.3z M11.8,73.7V78
		h34.5V29.5H11.8v4.3h23.7v39.9H11.8z M11.8,71.6h21.5V36H11.8V71.6z M35.5,17.7H22.5v5.4h12.9C35.5,23.1,35.5,17.7,35.5,17.7z
		 M76.4,60.8h9.7c2.4,0,4.3-1.9,4.3-4.3V38.2c0-2.4-1.9-4.3-4.3-4.3H48.4v39.9h15.1c2.4,0,4.3-1.9,4.3-4.3
		C67.8,64.7,71.7,60.8,76.4,60.8z M53.8,37.1c1.5,0,2.2,0.6,2.2,2.2c0,1.5-0.6,2.2-2.2,2.2c-1.5,0-2.2-0.6-2.2-2.2
		C51.6,37.7,52.3,37.1,53.8,37.1z M53.8,66.2c1.5,0,2.2,0.6,2.2,2.2c0,1.5-0.6,2.2-2.2,2.2c-1.5,0-2.2-0.6-2.2-2.2
		C51.6,66.8,52.3,66.2,53.8,66.2z M61.3,37.1c1.5,0,2.2,0.6,2.2,2.2c0,1.5-0.6,2.2-2.2,2.2c-1.5,0-2.2-0.6-2.2-2.2
		C59.2,37.7,59.8,37.1,61.3,37.1z M61.3,66.2c1.5,0,2.2,0.6,2.2,2.2c0,1.5-0.6,2.2-2.2,2.2c-1.5,0-2.2-0.6-2.2-2.2
		C59.2,66.8,59.8,66.2,61.3,66.2z M68.9,37.1c1.5,0,2.2,0.6,2.2,2.2c0,1.5-0.6,2.2-2.2,2.2s-2.2-0.6-2.2-2.2
		C66.7,37.7,67.3,37.1,68.9,37.1z M76.4,37.1c1.5,0,2.2,0.6,2.2,2.2c0,1.5-0.6,2.2-2.2,2.2s-2.2-0.6-2.2-2.2
		C74.2,37.7,74.9,37.1,76.4,37.1z M83.9,37.1c1.5,0,2.2,0.6,2.2,2.2c0,1.5-0.6,2.2-2.2,2.2s-2.2-0.6-2.2-2.2
		C81.8,37.7,82.4,37.1,83.9,37.1z"/>
</g>
</svg>
