<svg height='100px' width='100px'  fill="#2f2d2b" xmlns="http://www.w3.org/2000/svg" xmlns:xlink="http://www.w3.org/1999/xlink" version="1.1" x="0px" y="0px" viewBox="0 0 100 100" enable-background="new 0 0 100 100" xml:space="preserve"><g><path d="M65.507,79.775H48.14v2.48c1.365,0,2.48,1.117,2.48,2.479v2.484c0,1.361-1.115,2.477-2.48,2.477H3.481   c-1.365,0-2.48-1.115-2.48-2.477v-2.484c0-1.361,1.115-2.479,2.48-2.479V26.431c-1.365,0-2.48-1.115-2.48-2.48v-2.48   c0-1.364,1.115-2.482,2.48-2.482h12.405v-6.202c0-1.364,1.116-2.481,2.481-2.481h14.886c1.365,0,2.481,1.117,2.481,2.481v6.202   H48.14c1.365,0,2.48,1.118,2.48,2.482v2.48c0,1.365-1.115,2.48-2.48,2.48v2.482h43.418c4.096,0,7.441,3.349,7.441,7.443v21.086   c0,4.096-3.346,7.443-7.441,7.443H80.392c-4.092,0-7.443,3.35-7.443,7.443C72.948,76.426,69.599,79.775,65.507,79.775z    M3.481,23.951H48.14v-2.48H3.481V23.951z M3.481,87.219H48.14v-2.484H3.481V87.219z M5.962,77.291v4.965h39.697V26.431H5.962   v4.963h27.292v45.897H5.962z M5.962,74.814h24.811V33.875H5.962V74.814z M33.254,12.786H18.368v6.202h14.886V12.786z    M80.392,62.408h11.166c2.73,0,4.961-2.234,4.961-4.965V36.357c0-2.73-2.23-4.963-4.961-4.963H48.14v45.897h17.367   c2.73,0,4.961-2.23,4.961-4.961C70.468,66.871,74.935,62.408,80.392,62.408z M54.341,35.116c1.736,0,2.482,0.744,2.482,2.481   c0,1.735-0.746,2.48-2.482,2.48c-1.734,0-2.479-0.745-2.479-2.48C51.862,35.86,52.606,35.116,54.341,35.116z M54.341,68.611   c1.736,0,2.482,0.742,2.482,2.477c0,1.74-0.746,2.484-2.482,2.484c-1.734,0-2.479-0.744-2.479-2.484   C51.862,69.354,52.606,68.611,54.341,68.611z M63.024,35.116c1.74,0,2.482,0.744,2.482,2.481c0,1.735-0.742,2.48-2.482,2.48   c-1.734,0-2.48-0.745-2.48-2.48C60.544,35.86,61.29,35.116,63.024,35.116z M63.024,68.611c1.74,0,2.482,0.742,2.482,2.477   c0,1.74-0.742,2.484-2.482,2.484c-1.734,0-2.48-0.744-2.48-2.484C60.544,69.354,61.29,68.611,63.024,68.611z M71.708,35.116   c1.736,0,2.482,0.744,2.482,2.481c0,1.735-0.746,2.48-2.482,2.48s-2.48-0.745-2.48-2.48C69.228,35.86,69.972,35.116,71.708,35.116z    M80.392,35.116c1.736,0,2.482,0.744,2.482,2.481c0,1.735-0.746,2.48-2.482,2.48s-2.48-0.745-2.48-2.48   C77.911,35.86,78.655,35.116,80.392,35.116z M89.075,35.116c1.736,0,2.482,0.744,2.482,2.481c0,1.735-0.746,2.48-2.482,2.48   s-2.48-0.745-2.48-2.48C86.595,35.86,87.339,35.116,89.075,35.116z"></path></g></svg>