<svg height='100px' width='100px'  fill="#2f2d2b" xmlns="http://www.w3.org/2000/svg" xmlns:xlink="http://www.w3.org/1999/xlink" version="1.1" x="0px" y="0px" viewBox="0 0 100 100" style="enable-background:new 0 0 100 100;" xml:space="preserve"><path d="M87,74.1c3.9,0,7-3.2,7-7s-3.2-7-7-7c-3.9,0-7,3.2-7,7S83.1,74.1,87,74.1z M87,61.8c2.9,0,5.2,2.3,5.2,5.2  s-2.3,5.2-5.2,5.2s-5.2-2.3-5.2-5.2S84.1,61.8,87,61.8z M87,71c2.2,0,4-1.8,4-4c0-2.2-1.8-4-4-4c-2.2,0-4,1.8-4,4  C83,69.2,84.8,71,87,71z M87,64.9c1.2,0,2.1,1,2.1,2.1c0,1.2-1,2.1-2.1,2.1c-1.2,0-2.1-1-2.1-2.1C84.8,65.8,85.8,64.9,87,64.9z   M76.3,31.9h16.8c0.5,0,0.9-0.4,0.9-0.9v-6.6c0-0.5-0.4-0.9-0.9-0.9H76.3c-0.5,0-0.9,0.4-0.9,0.9V31C75.4,31.5,75.8,31.9,76.3,31.9z   M77.2,25.3h15v4.8h-15V25.3z M7.8,31.1h21.5c0.5,0,0.9-0.4,0.9-0.9v-5c0-0.5-0.4-0.9-0.9-0.9H7.8c-0.5,0-0.9,0.4-0.9,0.9v5  C6.9,30.7,7.3,31.1,7.8,31.1z M8.7,26.1h19.7v3.2H8.7V26.1z M41.8,53.6c0,7.4,6,13.5,13.5,13.5s13.5-6,13.5-13.5s-6-13.5-13.5-13.5  S41.8,46.2,41.8,53.6z M66.9,53.6c0,6.4-5.2,11.7-11.7,11.7s-11.7-5.2-11.7-11.7S48.8,42,55.3,42S66.9,47.2,66.9,53.6z M97.7,18H73  v-0.7c0-2.1-1.7-3.8-3.8-3.8h-28c-2.1,0-3.8,1.7-3.8,3.8V18H19.9v-2.2c0-2.1-1.7-3.8-3.8-3.8h-5.2c-2.1,0-3.8,1.7-3.8,3.8V18H2.3  c-1,0-1.8,0.8-1.8,1.8v59.7c0,1,0.8,1.8,1.8,1.8h1.1l2.1,5.5C5.8,87.6,6.5,88,7.2,88h85.5c0.7,0,1.4-0.5,1.7-1.2l2.1-5.5h1.1  c1,0,1.8-0.8,1.8-1.8V19.8C99.5,18.8,98.7,18,97.7,18z M39.3,17.2c0-1.1,0.9-2,2-2h28c1.1,0,2,0.9,2,2V18H39.3V17.2z M10.7,15.8  c0-0.1,0.1-0.2,0.2-0.2h5.2c0.1,0,0.2,0.1,0.2,0.2V18h-5.6V15.8z M8.9,21.6h9.2h77.8v11.9H65.9c-3.2-1.7-6.8-2.7-10.7-2.7  s-7.5,1-10.7,2.7H4.1V21.6H8.9z M95.9,77.7h-0.6H4.7H4.1V37.1h35.4c-0.8,0.8-1.5,1.6-2.2,2.4c-0.5-0.3-1.1-0.4-1.6-0.4  c-2,0-3.6,1.6-3.6,3.6c0,1.3,0.7,2.4,1.7,3.1c-0.9,2.4-1.4,5.1-1.4,7.8c0,12.6,10.2,22.8,22.8,22.8s22.8-10.2,22.8-22.8  c0-6.5-2.7-12.4-7.1-16.6h24.9V77.7z M74.5,53.6c0,10.6-8.6,19.2-19.2,19.2S36,64.2,36,53.6s8.6-19.2,19.2-19.2S74.5,43.1,74.5,53.6  z M33.9,42.7c0-1,0.8-1.8,1.8-1.8c0.2,0,0.4,0,0.6,0.1c-0.7,1-1.2,2-1.7,3.1C34.1,43.8,33.9,43.3,33.9,42.7z M91.5,84.4h-83  l-1.2-3.1h85.4L91.5,84.4z"></path></svg>