<svg height='100px' width='100px'  fill="#2f2d2b" xmlns="http://www.w3.org/2000/svg" xmlns:xlink="http://www.w3.org/1999/xlink" version="1.1" x="0px" y="0px" viewBox="0 0 100 100" enable-background="new 0 0 100 100" xml:space="preserve"><g><path d="M87.337,28.195c-0.321-0.323-0.745-0.484-1.168-0.484h-6.38H42.243v-2.267h1.166V20.65H32.365v-2.882   c0-0.606-0.496-1.102-1.102-1.102h-7.837c-0.606,0-1.102,0.496-1.102,1.102v2.882H11.28v4.793h1.166v53.764H11.28V84h32.129v-4.793   h-1.166v-2.525h28.698c1.27,0,2.537-0.483,3.506-1.453c0.969-0.968,1.453-2.235,1.453-3.504V53.883   c0-0.847,0.322-1.691,0.968-2.338s1.491-0.968,2.337-0.968h6.964c0.423,0,0.847-0.161,1.168-0.484   c0.323-0.323,0.483-0.746,0.483-1.168V29.363C87.82,28.94,87.66,28.518,87.337,28.195z M42.243,50.577v23.448H18.957   c-0.423,0-0.846-0.161-1.169-0.483c-0.322-0.323-0.483-0.746-0.483-1.169V46.919h24.938V50.577z M42.243,44.07H17.305v-1.396   h24.938V44.07z M42.243,33.51H17.305v-1.232c0-0.423,0.161-0.846,0.483-1.168c0.323-0.323,0.746-0.484,1.169-0.484h23.286V33.51z    M47.232,74.543h-2.364V72.18h2.364V74.543z M47.232,32.214h-2.364V29.85h2.364V32.214z M51.961,74.543h-2.365V72.18h2.365V74.543z    M51.961,32.214h-2.365V29.85h2.365V32.214z M56.689,74.543h-2.364V72.18h2.364V74.543z M56.689,32.214h-2.364V29.85h2.364V32.214z    M61.418,74.543h-2.363V72.18h2.363V74.543z M61.418,32.214h-2.363V29.85h2.363V32.214z M66.146,74.543h-2.365V72.18h2.365V74.543z    M66.146,32.214h-2.365V29.85h2.365V32.214z M70.876,74.543h-2.364V72.18h2.364V74.543z M70.876,32.214h-2.364V29.85h2.364V32.214z    M75.604,32.214H73.24V29.85h2.363V32.214z M80.333,32.214h-2.364V29.85h2.364V32.214z M85.062,32.214h-2.365V29.85h2.365V32.214z"></path><rect x="18.924" y="48.569" width="4.016" height="4.017"></rect><rect x="24.753" y="48.569" width="4.016" height="4.017"></rect></g></svg>