<?xml version="1.0" encoding="utf-8"?>
<!-- Generator: Adobe Illustrator 24.3.0, SVG Export Plug-In . SVG Version: 6.00 Build 0)  -->
<svg version="1.1" id="Layer_1" xmlns="http://www.w3.org/2000/svg" xmlns:xlink="http://www.w3.org/1999/xlink" x="0px" y="0px"
	 viewBox="0 0 100 100" style="enable-background:new 0 0 100 100;" xml:space="preserve">
<style type="text/css">
	.st0{fill:#2F2D2B;}
</style>
<desc>Created with Sketch.</desc>
<g>
	<g>
		<path class="st0" d="M84.3,66.9h-4.9V54.6h1.2c2,0,3.7-1.7,3.7-3.7v-2.5c0-0.6-0.6-1.2-1.2-1.2s-1.2,0.6-1.2,1.2v2.5
			c0,0.6-0.6,1.2-1.2,1.2h-1.3v-8.6c0-0.6-0.6-1.2-1.2-1.2c-0.6,0-1.2,0.6-1.2,1.2v14.8h-1.3c-0.6,0-1.2-0.6-1.2-1.2v-2.5
			c0-0.6-0.6-1.2-1.2-1.2s-1.2,0.6-1.2,1.2v2.5c0,2,1.7,3.7,3.7,3.7H77V67h-5.5l-6.7-12.3c-0.5-0.8-1.3-1.3-2.1-1.3H52.7
			c-0.6,0-1,0.2-1.4,0.5l-7.9,5.7H36c-1,0-2,0.6-2.3,1.7L31.7,67h-6.5v-9.9h1.2c2,0,3.7-1.7,3.7-3.7v-1.2c0-0.6-0.6-1.2-1.2-1.2
			c-0.6,0-1.3,0.5-1.3,1.1v1.2c0,0.6-0.6,1.2-1.2,1.2h-1.2v-6.2c0-0.6-0.6-1.2-1.2-1.2c-0.6,0-1.2,0.6-1.2,1.2v12.3h-1.2
			c-0.6,0-1.2-0.6-1.2-1.2v-2.5c0-0.6-0.6-1.2-1.2-1.2c-0.6,0-1.2,0.6-1.2,1.2v2.5c0,2,1.7,3.7,3.7,3.7H23v3.7h-7.4
			c-1.4,0-2.5,1.1-2.5,2.5v12.3c0,1.4,1.1,2.5,2.5,2.5h69c1.4,0,2.5-1.1,2.5-2.5V69.4C86.8,68,85.7,66.9,84.3,66.9z M36,62h7.3
			c0.1,0,0.2,0,0.2,0c0.1,0,0.1,0,0.2,0h9.9c0.6,0,1.2-0.6,1.2-1.2c0-0.6-0.6-1.2-1.2-1.2h-6l5.2-3.7h10l6,11.1H34.3L36,62z
			 M15.4,81.7v-4.9h2.5c0.6,0,1.2-0.6,1.2-1.2c0-0.6-0.6-1.2-1.2-1.2h-2.5v-5h69v4.9h-2.5c-0.6,0-1.2,0.6-1.2,1.2s0.6,1.2,1.2,1.2
			h2.5v4.9L15.4,81.7L15.4,81.7z"/>
		<path class="st0" d="M27.7,74.3H24c-0.6,0-1.2,0.6-1.2,1.2s0.6,1.2,1.2,1.2h3.7c0.6,0,1.2-0.6,1.2-1.2
			C28.9,74.8,28.3,74.3,27.7,74.3z"/>
		<path class="st0" d="M37.6,74.3h-3.7c-0.6,0-1.2,0.6-1.2,1.2s0.6,1.2,1.2,1.2h3.7c0.6,0,1.2-0.6,1.2-1.2
			C38.8,74.8,38.2,74.3,37.6,74.3z"/>
		<path class="st0" d="M47.4,74.3h-3.7c-0.6,0-1.2,0.6-1.2,1.2s0.6,1.2,1.2,1.2h3.7c0.6,0,1.2-0.6,1.2-1.2
			C48.7,74.8,48.1,74.3,47.4,74.3z"/>
		<path class="st0" d="M57.3,74.3h-3.7c-0.6,0-1.2,0.6-1.2,1.2s0.6,1.2,1.2,1.2h3.7c0.6,0,1.2-0.6,1.2-1.2
			C58.5,74.8,57.9,74.3,57.3,74.3z"/>
		<path class="st0" d="M67.1,74.3h-3.7c-0.6,0-1.2,0.6-1.2,1.2s0.6,1.2,1.2,1.2h3.7c0.6,0,1.2-0.6,1.2-1.2
			C68.3,74.8,67.8,74.3,67.1,74.3z"/>
		<path class="st0" d="M76.9,74.3h-3.7c-0.6,0-1.2,0.6-1.2,1.2s0.6,1.2,1.2,1.2h3.7c0.6,0,1.2-0.6,1.2-1.2
			C78.2,74.8,77.7,74.3,76.9,74.3z"/>
		<path class="st0" d="M28.9,34.9c4.8,0,8.6-3.9,8.6-8.6s-3.8-8.7-8.6-8.7s-8.6,3.9-8.6,8.6C20.3,31,24.2,34.9,28.9,34.9z
			 M28.9,20.1c3.4,0,6.2,2.8,6.2,6.2s-2.8,6.1-6.2,6.1s-6.2-2.8-6.2-6.2C22.8,22.9,25.6,20.1,28.9,20.1z"/>
		<path class="st0" d="M30.2,13.9v-2.5c0-0.6-0.6-1.2-1.2-1.2c-0.6,0-1.3,0.6-1.3,1.2v2.5c0,0.6,0.6,1.2,1.2,1.2
			S30.2,14.6,30.2,13.9z"/>
		<path class="st0" d="M22.8,16.8c0.5,0,0.8-0.3,1.1-0.6c0.2-0.4,0.2-0.8,0-1.2l-1.2-2.1c-0.4-0.6-1.1-0.7-1.7-0.5
			c-0.6,0.4-0.8,1.1-0.5,1.7l1.2,2.1C21.9,16.6,22.3,16.8,22.8,16.8z"/>
		<path class="st0" d="M18.9,19l-2.1-1.2c-0.4-0.2-0.8-0.2-1.2,0c-0.4,0.2-0.6,0.6-0.6,1.1s0.3,0.8,0.6,1.1l2.1,1.2
			c0.6,0.4,1.3,0.1,1.7-0.5C19.7,20.2,19.5,19.4,18.9,19z"/>
		<path class="st0" d="M12.9,26.2c0,0.6,0.6,1.2,1.2,1.2h2.5c0.6,0,1.2-0.6,1.2-1.2S17.2,25,16.6,25h-2.5
			C13.4,25,12.9,25.6,12.9,26.2z"/>
		<path class="st0" d="M17.6,31.3l-2.1,1.2c-0.4,0.2-0.6,0.6-0.6,1.1c0,0.5,0.3,0.8,0.6,1.1c0.4,0.2,0.8,0.2,1.2,0l2.1-1.2
			c0.4-0.2,0.6-0.6,0.6-1.1c0-0.5-0.3-0.8-0.6-1.1C18.4,31,18,31.1,17.6,31.3z"/>
		<path class="st0" d="M21.7,36.3l-1.2,2.1c-0.2,0.4-0.2,0.8,0,1.2c0.2,0.4,0.6,0.6,1.1,0.6s0.8-0.3,1.1-0.6l1.2-2.1
			c0.4-0.6,0.1-1.3-0.5-1.7S22,35.7,21.7,36.3z"/>
		<path class="st0" d="M27.7,38.6v2.5c0,0.6,0.6,1.2,1.2,1.2s1.2-0.6,1.2-1.2v-2.5c0-0.6-0.6-1.2-1.2-1.2S27.7,37.8,27.7,38.6z"/>
		<path class="st0" d="M34.4,35.8c-0.6,0.4-0.8,1.1-0.5,1.7l1.2,2.1c0.2,0.4,0.6,0.6,1.1,0.6c0.5,0,0.8-0.3,1.1-0.6
			c0.3-0.4,0.2-0.8,0-1.2l-1.2-2.1C35.8,35.7,35.1,35.5,34.4,35.8z"/>
		<path class="st0" d="M39,33.5l2.1,1.2c0.4,0.2,0.8,0.2,1.2,0c0.4-0.2,0.6-0.6,0.6-1.1c0-0.5-0.3-0.8-0.6-1.1l-2.1-1.2
			c-0.6-0.4-1.3-0.1-1.7,0.5C38.2,32.4,38.4,33.1,39,33.5z"/>
		<path class="st0" d="M40,26.2c0,0.6,0.6,1.2,1.2,1.2h2.5c0.6,0,1.2-0.6,1.2-1.2S44.4,25,43.7,25h-2.5C40.5,25,40,25.6,40,26.2z"/>
		<path class="st0" d="M41.1,17.8L39,19c-0.4,0.2-0.6,0.6-0.6,1.1s0.3,0.8,0.6,1.1c0.4,0.2,0.8,0.2,1.2,0l2.1-1.2
			c0.4-0.2,0.6-0.6,0.6-1.1s-0.3-0.8-0.6-1.1C41.9,17.5,41.5,17.5,41.1,17.8z"/>
		<path class="st0" d="M35.1,16.8c0.5,0,0.8-0.3,1.1-0.6l1.2-2.1c0.2-0.4,0.2-0.8,0-1.2c-0.2-0.4-0.6-0.6-1.1-0.6
			c-0.5,0-0.8,0.3-1.1,0.6L34,14.9c-0.2,0.4-0.2,0.8,0,1.2C34.2,16.6,34.6,16.8,35.1,16.8z"/>
	</g>
</g>
</svg>
