<svg height='100px' width='100px'  fill="#2f2d2b" xmlns="http://www.w3.org/2000/svg" xmlns:xlink="http://www.w3.org/1999/xlink" viewBox="0 0 60 60" version="1.1" x="0px" y="0px"><title>045 - Landscape </title><desc>Created with Sketch.</desc><g stroke="none" stroke-width="1" fill="none" fill-rule="evenodd"><g fill="#2f2d2b" fill-rule="nonzero"><path d="M58,46 L54,46 L54,36 L55,36 C56.6568542,36 58,34.6568542 58,33 L58,31 C58,30.4477153 57.5522847,30 57,30 C56.4477153,30 56,30.4477153 56,31 L56,33 C56,33.5522847 55.5522847,34 55,34 L54,34 L54,27 C54,26.4477153 53.5522847,26 53,26 C52.4477153,26 52,26.4477153 52,27 L52,39 L51,39 C50.4477153,39 50,38.5522847 50,38 L50,36 C50,35.4477153 49.5522847,35 49,35 C48.4477153,35 48,35.4477153 48,36 L48,38 C48,39.6568542 49.3431458,41 51,41 L52,41 L52,46 L47.593,46 L42.162,36.043 C41.8116838,35.4001405 41.1381132,35.0000641 40.406,35 L32.32,35 C31.9031185,34.9992938 31.4965849,35.1297903 31.158,35.373 L24.68,40 L18.721,40 C17.8593146,39.9987875 17.0937229,40.5496106 16.821,41.367 L15.279,46 L10,46 L10,38 L11,38 C12.6568542,38 14,36.6568542 14,35 L14,34 C14,33.4477153 13.5522847,33 13,33 C12.4477153,33 12,33.4477153 12,34 L12,35 C12,35.5522847 11.5522847,36 11,36 L10,36 L10,31 C10,30.4477153 9.55228475,30 9,30 C8.44771525,30 8,30.4477153 8,31 L8,41 L7,41 C6.44771525,41 6,40.5522847 6,40 L6,38 C6,37.4477153 5.55228475,37 5,37 C4.44771525,37 4,37.4477153 4,38 L4,40 C4,41.6568542 5.34314575,43 7,43 L8,43 L8,46 L2,46 C0.8954305,46 1.3527075e-16,46.8954305 0,48 L0,58 C1.3527075e-16,59.1045695 0.8954305,60 2,60 L58,60 C59.1045695,60 60,59.1045695 60,58 L60,48 C60,46.8954305 59.1045695,46 58,46 Z M18.721,42 L24.68,42 C24.742,42 24.799,41.977 24.861,41.972 C24.9065487,41.984876 24.9530185,41.9942368 25,42 L33,42 C33.5522847,42 34,41.5522847 34,41 C34,40.4477153 33.5522847,40 33,40 L28.12,40 L32.32,37 L40.406,37 L45.316,46 L17.388,46 L18.721,42 Z M2,58 L2,54 L4,54 C4.55228475,54 5,53.5522847 5,53 C5,52.4477153 4.55228475,52 4,52 L2,52 L2,48 L58,48 L58,52 L56,52 C55.4477153,52 55,52.4477153 55,53 C55,53.5522847 55.4477153,54 56,54 L58,54 L58,58 L2,58 Z"></path><path d="M12,52 L9,52 C8.44771525,52 8,52.4477153 8,53 C8,53.5522847 8.44771525,54 9,54 L12,54 C12.5522847,54 13,53.5522847 13,53 C13,52.4477153 12.5522847,52 12,52 Z"></path><path d="M20,52 L17,52 C16.4477153,52 16,52.4477153 16,53 C16,53.5522847 16.4477153,54 17,54 L20,54 C20.5522847,54 21,53.5522847 21,53 C21,52.4477153 20.5522847,52 20,52 Z"></path><path d="M28,52 L25,52 C24.4477153,52 24,52.4477153 24,53 C24,53.5522847 24.4477153,54 25,54 L28,54 C28.5522847,54 29,53.5522847 29,53 C29,52.4477153 28.5522847,52 28,52 Z"></path><path d="M36,52 L33,52 C32.4477153,52 32,52.4477153 32,53 C32,53.5522847 32.4477153,54 33,54 L36,54 C36.5522847,54 37,53.5522847 37,53 C37,52.4477153 36.5522847,52 36,52 Z"></path><path d="M44,52 L41,52 C40.4477153,52 40,52.4477153 40,53 C40,53.5522847 40.4477153,54 41,54 L44,54 C44.5522847,54 45,53.5522847 45,53 C45,52.4477153 44.5522847,52 44,52 Z"></path><path d="M52,52 L49,52 C48.4477153,52 48,52.4477153 48,53 C48,53.5522847 48.4477153,54 49,54 L52,54 C52.5522847,54 53,53.5522847 53,53 C53,52.4477153 52.5522847,52 52,52 Z"></path><path d="M13,20 C16.8659932,20 20,16.8659932 20,13 C20,9.13400675 16.8659932,6 13,6 C9.13400675,6 6,9.13400675 6,13 C6.00440864,16.8641657 9.13583434,19.9955914 13,20 Z M13,8 C15.7614237,8 18,10.2385763 18,13 C18,15.7614237 15.7614237,18 13,18 C10.2385763,18 8,15.7614237 8,13 C8.00330612,10.2399468 10.2399468,8.00330612 13,8 Z"></path><path d="M14,3 L14,1 C14,0.44771525 13.5522847,3.38176876e-17 13,0 C12.4477153,-3.38176876e-17 12,0.44771525 12,1 L12,3 C12,3.55228475 12.4477153,4 13,4 C13.5522847,4 14,3.55228475 14,3 Z"></path><path d="M8,5.34 C8.3570824,5.33963395 8.68687394,5.14889043 8.86525662,4.83955632 C9.04363929,4.5302222 9.04354148,4.14924248 8.865,3.84 L7.865,2.107 C7.58699423,1.63278639 6.97835296,1.47187139 6.5023057,1.74672547 C6.02625843,2.02157955 5.86130971,2.62914004 6.133,3.107 L7.133,4.84 C7.31180678,5.14970282 7.64238627,5.34034843 8,5.34 Z"></path><path d="M4.84,7.134 L3.108,6.134 C2.79842958,5.95251562 2.41535053,5.95081669 2.10418258,6.12954814 C1.79301463,6.30827959 1.60146901,6.64003661 1.6022579,6.9988817 C1.60304678,7.35772679 1.79604922,7.68863842 2.108,7.866 L3.84,8.866 C4.31785996,9.13769029 4.92542045,8.97274157 5.20027453,8.4966943 C5.47512861,8.02064704 5.31421361,7.41200577 4.84,7.134 Z"></path><path d="M0,13 C6.76353751e-17,13.5522847 0.44771525,14 1,14 L3,14 C3.55228475,14 4,13.5522847 4,13 C4,12.4477153 3.55228475,12 3,12 L1,12 C0.44771525,12 6.76353751e-17,12.4477153 0,13 Z"></path><path d="M3.84,17.134 L2.108,18.134 C1.79604922,18.3113616 1.60304678,18.6422732 1.6022579,19.0011183 C1.60146901,19.3599634 1.79301463,19.6917204 2.10418258,19.8704519 C2.41535053,20.0491833 2.79842958,20.0474844 3.108,19.866 L4.84,18.866 C5.15195078,18.6886384 5.34495322,18.3577268 5.3457421,17.9988817 C5.34653099,17.6400366 5.15498537,17.3082796 4.84381742,17.1295481 C4.53264947,16.9508167 4.14957042,16.9525156 3.84,17.134 Z"></path><path d="M7.134,21.16 L6.134,22.893 C5.95251562,23.2025704 5.95081669,23.5856495 6.12954814,23.8968174 C6.30827959,24.2079854 6.64003661,24.399531 6.9988817,24.3987421 C7.35772679,24.3979532 7.68863842,24.2049508 7.866,23.893 L8.866,22.16 C9.13769029,21.68214 8.97274157,21.0745795 8.4966943,20.7997255 C8.02064704,20.5248714 7.41200577,20.6857864 7.134,21.16 Z"></path><path d="M12,23 L12,25 C12,25.5522847 12.4477153,26 13,26 C13.5522847,26 14,25.5522847 14,25 L14,23 C14,22.4477153 13.5522847,22 13,22 C12.4477153,22 12,22.4477153 12,23 Z"></path><path d="M17.5,20.794 C17.0217318,21.0701504 16.8578707,21.6817197 17.134,22.16 L18.134,23.893 C18.3113616,24.2049508 18.6422732,24.3979532 19.0011183,24.3987421 C19.3599634,24.399531 19.6917204,24.2079854 19.8704519,23.8968174 C20.0491833,23.5856495 20.0474844,23.2025704 19.866,22.893 L18.866,21.16 C18.5898496,20.6817318 17.9782803,20.5178707 17.5,20.794 Z"></path><path d="M21.16,18.866 L22.892,19.866 C23.2015704,20.0474844 23.5846495,20.0491833 23.8958174,19.8704519 C24.2069854,19.6917204 24.398531,19.3599634 24.3977421,19.0011183 C24.3969532,18.6422732 24.2039508,18.3113616 23.892,18.134 L22.16,17.134 C21.68214,16.8623097 21.0745795,17.0272584 20.7997255,17.5033057 C20.5248714,17.979353 20.6857864,18.5879942 21.16,18.866 Z"></path><path d="M22,13 C22,13.5522847 22.4477153,14 23,14 L25,14 C25.5522847,14 26,13.5522847 26,13 C26,12.4477153 25.5522847,12 25,12 L23,12 C22.4477153,12 22,12.4477153 22,13 Z"></path><path d="M22.892,6.134 L21.16,7.134 C20.8480492,7.31136158 20.6550468,7.64227321 20.6542579,8.0011183 C20.653469,8.35996339 20.8450146,8.69172041 21.1561826,8.87045186 C21.4673505,9.04918331 21.8504296,9.04748438 22.16,8.866 L23.892,7.866 C24.2039508,7.68863842 24.3969532,7.35772679 24.3977421,6.9988817 C24.398531,6.64003661 24.2069854,6.30827959 23.8958174,6.12954814 C23.5846495,5.95081669 23.2015704,5.95251562 22.892,6.134 Z"></path><path d="M18,5.34 C18.3576137,5.34034843 18.6881932,5.14970282 18.867,4.84 L19.867,3.107 C20.0484844,2.79742958 20.0501833,2.41435053 19.8714519,2.10318258 C19.6927204,1.79201463 19.3609634,1.60046901 19.0021183,1.6012579 C18.6432732,1.60204678 18.3123616,1.79504922 18.135,2.107 L17.135,3.84 C16.9564585,4.14924248 16.9563607,4.5302222 17.1347434,4.83955632 C17.3131261,5.14889043 17.6429176,5.33963395 18,5.34 Z"></path></g></g></svg>