<?xml version="1.0" encoding="utf-8"?>
<!-- Generator: Adobe Illustrator 24.3.0, SVG Export Plug-In . SVG Version: 6.00 Build 0)  -->
<svg version="1.1" id="Layer_1" xmlns="http://www.w3.org/2000/svg" xmlns:xlink="http://www.w3.org/1999/xlink" x="0px" y="0px"
	 viewBox="0 0 100 100" style="enable-background:new 0 0 100 100;" xml:space="preserve">
<style type="text/css">
	.st0{fill:#2F2D2B;}
</style>
<desc>Created with Sketch.</desc>
<g>
	<g>
		<path class="st0" d="M87.3,62.3H82V49h1.3c2.2,0,4-1.8,4-4v-2.7c0-0.7-0.6-1.3-1.3-1.3s-1.3,0.6-1.3,1.3V45c0,0.7-0.6,1.3-1.3,1.3
			H82V37c0-0.7-0.6-1.3-1.3-1.3c-0.7,0-1.3,0.6-1.3,1.3v16H78c-0.7,0-1.3-0.6-1.3-1.3V49c0-0.7-0.6-1.3-1.3-1.3
			c-0.7,0-1.3,0.6-1.3,1.3v2.7c0,2.2,1.8,4,4,4h1.3v6.7h-5.9l-7.2-13.3c-0.5-0.9-1.4-1.4-2.3-1.4H53.1c-0.6,0-1.1,0.2-1.5,0.5
			L43,54.4h-8c-1.1,0-2.2,0.7-2.5,1.8l-2.1,6.2h-7V51.7h1.3c2.2,0,4-1.8,4-4v-1.3c0-0.7-0.6-1.3-1.3-1.3S26,45.6,26,46.3v1.3
			c0,0.7-0.6,1.3-1.3,1.3h-1.3v-6.7c0-0.7-0.6-1.3-1.3-1.3c-0.7,0-1.3,0.6-1.3,1.3v13.3h-1.3c-0.7,0-1.3-0.6-1.3-1.3v-2.7
			c0-0.7-0.6-1.3-1.3-1.3s-1.3,0.6-1.3,1.3v2.7c0,2.2,1.8,4,4,4h1.3v4h-8c-1.5,0-2.7,1.2-2.7,2.7v13.3c0,1.5,1.2,2.7,2.7,2.7h74.7
			c1.5,0,2.7-1.2,2.7-2.7V65C90,63.5,88.8,62.3,87.3,62.3z M35,57h7.9c0.1,0,0.2,0,0.2,0c0.1,0,0.1,0,0.2,0H54
			c0.7,0,1.3-0.6,1.3-1.3c0-0.7-0.6-1.3-1.3-1.3h-6.5l5.6-4h10.8l6.5,12H33.2L35,57z M12.7,78.3V73h2.7c0.7,0,1.3-0.6,1.3-1.3
			c0-0.7-0.6-1.3-1.3-1.3h-2.7V65h74.7v5.3h-2.7c-0.7,0-1.3,0.6-1.3,1.3c0,0.7,0.6,1.3,1.3,1.3h2.7v5.3L12.7,78.3L12.7,78.3z"/>
		<path class="st0" d="M26,70.3h-4c-0.7,0-1.3,0.6-1.3,1.3c0,0.7,0.6,1.3,1.3,1.3h4c0.7,0,1.3-0.6,1.3-1.3S26.7,70.3,26,70.3z"/>
		<path class="st0" d="M36.7,70.3h-4c-0.7,0-1.3,0.6-1.3,1.3c0,0.7,0.6,1.3,1.3,1.3h4c0.7,0,1.3-0.6,1.3-1.3S37.4,70.3,36.7,70.3z"
			/>
		<path class="st0" d="M47.3,70.3h-4c-0.7,0-1.3,0.6-1.3,1.3c0,0.7,0.6,1.3,1.3,1.3h4c0.7,0,1.3-0.6,1.3-1.3
			C48.7,70.9,48.1,70.3,47.3,70.3z"/>
		<path class="st0" d="M58,70.3h-4c-0.7,0-1.3,0.6-1.3,1.3c0,0.7,0.6,1.3,1.3,1.3h4c0.7,0,1.3-0.6,1.3-1.3S58.7,70.3,58,70.3z"/>
		<path class="st0" d="M68.7,70.3h-4c-0.7,0-1.3,0.6-1.3,1.3c0,0.7,0.6,1.3,1.3,1.3h4c0.7,0,1.3-0.6,1.3-1.3S69.4,70.3,68.7,70.3z"
			/>
		<path class="st0" d="M79.3,70.3h-4c-0.7,0-1.3,0.6-1.3,1.3c0,0.7,0.6,1.3,1.3,1.3h4c0.7,0,1.3-0.6,1.3-1.3
			C80.7,70.9,80.1,70.3,79.3,70.3z"/>
		<path class="st0" d="M27.3,27.7c5.2,0,9.3-4.2,9.3-9.3S32.5,9,27.3,9S18,13.2,18,18.3C18,23.5,22.2,27.7,27.3,27.7z M27.3,11.7
			c3.7,0,6.7,3,6.7,6.7S31,25,27.3,25s-6.7-3-6.7-6.7C20.7,14.7,23.7,11.7,27.3,11.7z"/>
		<path class="st0" d="M28.7,5V2.3c0-0.7-0.6-1.3-1.3-1.3S26,1.6,26,2.3V5c0,0.7,0.6,1.3,1.3,1.3S28.7,5.7,28.7,5z"/>
		<path class="st0" d="M20.7,8.1c0.5,0,0.9-0.3,1.2-0.7c0.2-0.4,0.2-0.9,0-1.3l-1.3-2.3c-0.4-0.6-1.2-0.8-1.8-0.5
			c-0.6,0.4-0.9,1.2-0.5,1.8l1.3,2.3C19.7,7.9,20.2,8.1,20.7,8.1z"/>
		<path class="st0" d="M16.5,10.5l-2.3-1.3c-0.4-0.2-0.9-0.2-1.3,0c-0.4,0.2-0.7,0.7-0.7,1.2s0.3,0.9,0.7,1.2l2.3,1.3
			c0.6,0.4,1.4,0.1,1.8-0.5S17.1,10.9,16.5,10.5z"/>
		<path class="st0" d="M10,18.3c0,0.7,0.6,1.3,1.3,1.3H14c0.7,0,1.3-0.6,1.3-1.3S14.7,17,14,17h-2.7C10.6,17,10,17.6,10,18.3z"/>
		<path class="st0" d="M15.1,23.8l-2.3,1.3c-0.4,0.2-0.7,0.7-0.7,1.2s0.3,0.9,0.7,1.2c0.4,0.2,0.9,0.2,1.3,0l2.3-1.3
			c0.4-0.2,0.7-0.7,0.7-1.2s-0.3-0.9-0.7-1.2S15.5,23.6,15.1,23.8z"/>
		<path class="st0" d="M19.5,29.2l-1.3,2.3c-0.2,0.4-0.2,0.9,0,1.3s0.7,0.7,1.2,0.7s0.9-0.3,1.2-0.7l1.3-2.3
			c0.4-0.6,0.1-1.4-0.5-1.8S19.9,28.6,19.5,29.2z"/>
		<path class="st0" d="M26,31.7v2.7c0,0.7,0.6,1.3,1.3,1.3s1.3-0.6,1.3-1.3v-2.7c0-0.7-0.6-1.3-1.3-1.3S26,30.9,26,31.7z"/>
		<path class="st0" d="M33.3,28.7c-0.6,0.4-0.9,1.2-0.5,1.8l1.3,2.3c0.2,0.4,0.7,0.7,1.2,0.7s0.9-0.3,1.2-0.7s0.2-0.9,0-1.3
			l-1.3-2.3C34.8,28.6,34,28.4,33.3,28.7z"/>
		<path class="st0" d="M38.2,26.2l2.3,1.3c0.4,0.2,0.9,0.2,1.3,0c0.4-0.2,0.7-0.7,0.7-1.2s-0.3-0.9-0.7-1.2l-2.3-1.3
			c-0.6-0.4-1.4-0.1-1.8,0.5C37.4,25,37.6,25.8,38.2,26.2z"/>
		<path class="st0" d="M39.3,18.3c0,0.7,0.6,1.3,1.3,1.3h2.7c0.7,0,1.3-0.6,1.3-1.3S44.1,17,43.3,17h-2.7
			C39.9,17,39.3,17.6,39.3,18.3z"/>
		<path class="st0" d="M40.5,9.2l-2.3,1.3c-0.4,0.2-0.7,0.7-0.7,1.2s0.3,0.9,0.7,1.2c0.4,0.2,0.9,0.2,1.3,0l2.3-1.3
			c0.4-0.2,0.7-0.7,0.7-1.2s-0.3-0.9-0.7-1.2C41.4,8.9,40.9,8.9,40.5,9.2z"/>
		<path class="st0" d="M34,8.1c0.5,0,0.9-0.3,1.2-0.7l1.3-2.3c0.2-0.4,0.2-0.9,0-1.3c-0.2-0.4-0.7-0.7-1.2-0.7s-0.9,0.3-1.2,0.7
			l-1.3,2.3c-0.2,0.4-0.2,0.9,0,1.3C33.1,7.9,33.5,8.1,34,8.1z"/>
	</g>
</g>
</svg>
