<?xml version="1.0" encoding="utf-8"?>
<!-- Generator: Adobe Illustrator 24.3.0, SVG Export Plug-In . SVG Version: 6.00 Build 0)  -->
<svg version="1.1" id="Layer_1" xmlns="http://www.w3.org/2000/svg" xmlns:xlink="http://www.w3.org/1999/xlink" x="0px" y="0px"
	 viewBox="0 0 100 100" style="enable-background:new 0 0 100 100;" xml:space="preserve">
<style type="text/css">
	.st0{fill:none;stroke:#2F2D2B;stroke-width:1.2943;stroke-linecap:square;stroke-miterlimit:2.439;}
	.st1{fill:none;stroke:#2F2D2B;stroke-width:2.157;stroke-miterlimit:2.439;}
	.st2{fill:none;stroke:#2F2D2B;stroke-width:1.2943;stroke-miterlimit:2.439;}
	.st3{fill:none;stroke:#2F2D2B;stroke-width:2.157;stroke-linecap:square;stroke-miterlimit:2.439;}
	.st4{fill:none;stroke:#2F2D2B;stroke-width:1.7256;stroke-linecap:round;stroke-linejoin:bevel;stroke-miterlimit:2.439;}
	.st5{fill:none;stroke:#2F2D2B;stroke-width:2.157;stroke-linecap:round;stroke-linejoin:bevel;stroke-miterlimit:2.439;}
</style>
<desc>Created with Sketch.</desc>
<g>
	<g>
		<path class="st0" d="M57.4,40.8c0,0,9.8,1.4,20.2,3.6c10.4,2.3,20.2,5,20.2,5 M98.2,65.1c0,0-10.5,2.8-16.1,3.9
			c-5.6,1.1-16.8,2.9-16.8,2.9l0,0"/>
		<path class="st0" d="M4,35.7c0,0,4.9,0.2,11.1,1c6.2,0.8,12.2,2.3,12.2,2.3 M35.9,72.7c0,0-7.7,1.9-15.5,3.1S4,77.9,4,77.9l0,0"/>
		<path class="st1" d="M4.2,32.7c0.2-1.9,2-3.4,3.9-3.3l80,3.1c3.3,0.1,6.8,2.8,7.7,6.1l0.7,2.6c2.5,8.7,2.5,22.8,0,31.5l-0.7,2.6
			c-0.9,3.2-4.3,5.9-7.7,5.9l-80,1.5c-1.9,0-3.7-1.4-3.9-3.3L1.9,63.5c-0.5-3.8-0.5-9.9-0.1-13.6L4.2,32.7z"/>
		<circle class="st1" cx="59.5" cy="59.4" r="11.3"/>
		<circle class="st2" cx="59.5" cy="59.4" r="6.9"/>
		<path class="st3" d="M44.5,59.4h3.4"/>
		<path class="st4" d="M51.4,31.3c0,0,3.3,10.4,11.6,15.4c6.8,4.1,7.7,7.5,8.2,9.3c0.3,1.1,2,6.9-4.1,13.4
			C60.9,75.9,59.7,82,59.7,82"/>
		<path class="st5" d="M23.8,31.3c0,0,3.3,10.4,11.6,15.4c6.6,3.9,7.8,7.6,8.2,9.3c0.3,1.3,1.9,7-4.1,13.4
			C33.3,75.9,32.1,82,32.1,82"/>
		<path class="st2" d="M38,30.7h8.7c1.4,0,2.6,1.1,2.6,2.6V35c0,1.4-1.1,2.6-2.6,2.6H38c-1.4,0-2.6-1.1-2.6-2.6v-1.8
			C35.4,31.8,36.6,30.7,38,30.7z"/>
	</g>
</g>
</svg>
