<?xml version="1.0" encoding="utf-8"?>
<!-- Generator: Adobe Illustrator 24.3.0, SVG Export Plug-In . SVG Version: 6.00 Build 0)  -->
<svg version="1.1" id="Layer_1" xmlns="http://www.w3.org/2000/svg" xmlns:xlink="http://www.w3.org/1999/xlink" x="0px" y="0px"
	 viewBox="0 0 100 100" style="enable-background:new 0 0 100 100;" xml:space="preserve">
<style type="text/css">
	.st0{fill:#2F2D2B;}
</style>
<g>
	<g>
		<g>
			<path class="st0" d="M23.4,48.6c-5.6,0-10.2-4.5-10.2-10.1s4.6-10.1,10.2-10.1s10.2,4.5,10.2,10.1S29,48.6,23.4,48.6z M23.4,31.2
				c-4.1,0-7.4,3.3-7.4,7.3s3.3,7.3,7.4,7.3c4.1,0,7.4-3.3,7.4-7.3S27.5,31.2,23.4,31.2z"/>
			<path class="st0" d="M27.5,76.6H9.7c-2,0-3.7-1.7-3.7-3.7v-4.6C6,58.8,13.8,51,23.4,51c3.8,0,7.4,1.2,10.4,3.4
				c0.6,0.5,0.8,1.4,0.3,2c-0.5,0.6-1.4,0.8-2,0.3c-2.5-1.9-5.5-2.9-8.7-2.9c-8,0-14.6,6.5-14.6,14.4v4.6c0,0.5,0.4,0.8,0.9,0.8
				h17.8c0.8,0,1.4,0.6,1.4,1.4S28.3,76.6,27.5,76.6z"/>
		</g>
		<g>
			<path class="st0" d="M90.3,75.5H72.5c-0.8,0-1.4-0.6-1.4-1.4s0.6-1.4,1.4-1.4h17.8c0.5,0,0.9-0.4,0.9-0.8v-4.6
				c0-7.9-6.5-14.4-14.6-14.4c-3.4,0-6.6,1.2-9.2,3.3c-0.6,0.5-1.5,0.4-2-0.2c-0.5-0.6-0.4-1.5,0.2-2c3.1-2.5,7-3.9,11-3.9
				C86.2,50,94,57.7,94,67.2v4.6C94,73.9,92.4,75.5,90.3,75.5z"/>
			<path class="st0" d="M76.6,47.9c-5.6,0-10.2-4.5-10.2-10.1S71,27.7,76.6,27.7s10.2,4.5,10.2,10.1S82.2,47.9,76.6,47.9z
				 M76.6,30.5c-4.1,0-7.4,3.3-7.4,7.3s3.3,7.3,7.4,7.3c4.1,0,7.4-3.3,7.4-7.3S80.7,30.5,76.6,30.5z"/>
		</g>
		<g>
			<path class="st0" d="M69.3,81.2H30.7c-2.6,0-4.6-2.1-4.6-4.6v-6.5C26.1,57,36.8,46.4,50,46.4S73.9,57,73.9,70.1v6.5
				C73.9,79.2,71.8,81.2,69.3,81.2z M50,49.3c-11.6,0-21.1,9.3-21.1,20.8v6.5c0,1,0.8,1.8,1.8,1.8h38.5c1,0,1.8-0.8,1.8-1.8v-6.5
				C71.1,58.6,61.6,49.3,50,49.3z"/>
			<path class="st0" d="M49.5,44.8c-7.2,0-13.1-5.8-13.1-13s5.9-13,13.1-13s13.1,5.8,13.1,13S56.7,44.8,49.5,44.8z M49.5,21.6
				c-5.7,0-10.3,4.6-10.3,10.2s4.6,10.2,10.3,10.2s10.3-4.6,10.3-10.2S55.2,21.6,49.5,21.6z"/>
		</g>
	</g>
</g>
</svg>
