<?xml version="1.0" encoding="utf-8"?>
<!-- Generator: Adobe Illustrator 24.3.0, SVG Export Plug-In . SVG Version: 6.00 Build 0)  -->
<svg version="1.1" id="Layer_1" xmlns="http://www.w3.org/2000/svg" xmlns:xlink="http://www.w3.org/1999/xlink" x="0px" y="0px"
	 viewBox="0 0 100 100" style="enable-background:new 0 0 100 100;" xml:space="preserve">
<style type="text/css">
	.st0{fill:#2F2D2B;}
</style>
<g>
	<path class="st0" d="M50,33.1c-26,0-47.2,21.2-47.2,47.2h3.3c0-24.2,19.7-43.9,43.9-43.9s43.9,19.7,43.9,43.9h3.4
		C97.2,54.3,76,33.1,50,33.1z"/>
	<path class="st0" d="M50,46.6c-18.6,0-33.8,15.1-33.8,33.8h3.4C19.6,63.6,33.3,50,50,50s30.3,13.7,30.3,30.3h3.4
		C83.7,61.7,68.6,46.6,50,46.6z"/>
	<path class="st0" d="M50,61.8c-10.2,0-18.5,8.3-18.5,18.5h3.4c0-8.4,6.8-15.2,15.2-15.2S65.3,72,65.3,80.4h3.2
		C68.5,70.1,60.2,61.8,50,61.8z"/>
</g>
</svg>
