<svg height='100px' width='100px'  fill="#2f2d2b" xmlns="http://www.w3.org/2000/svg" xmlns:xlink="http://www.w3.org/1999/xlink" version="1.1" x="0px" y="0px" viewBox="0 0 80 80" style="enable-background:new 0 0 80 80;" xml:space="preserve"><g><path d="M40,25.5c-15.4395,0-28,12.5605-28,28h2c0-14.3369,11.6636-26,26-26s26,11.6631,26,26h2C68,38.0605,55.4395,25.5,40,25.5z"></path><path d="M40,33.5c-11.0278,0-20,8.9717-20,20h2c0-9.9248,8.0747-18,18-18s18,8.0752,18,18h2C60,42.4717,51.0278,33.5,40,33.5z"></path><path d="M40,42.5c-6.0654,0-11,4.9346-11,11h2c0-4.9629,4.0376-9,9-9s9,4.0371,9,9h2C51,47.4346,46.0654,42.5,40,42.5z"></path></g></svg>